<svg xmlns="http://www.w3.org/2000/svg" viewBox="0 0 500 500" width="100%" height="100%">
  <!-- Logo Geometry -->
  <g stroke="#324479" stroke-width="18" stroke-linejoin="round" stroke-linecap="round" fill="none">
    
    <!-- Outer Hexagon Frame -->
    <path d="M 250 70 L 406 160 L 406 340 L 250 430 L 94 340 L 94 160 Z" />
    
    <!-- Central Y-Axis Splits -->
    <path d="M 250 250 L 250 430" />
    <path d="M 250 250 L 94 160" />
    <path d="M 250 250 L 406 160" />
    
    <!-- Top Face Inset & Divider -->
    <path d="M 250 111 L 336 160 L 250 210 L 164 160 Z" />
    <path d="M 250 111 L 250 210" />
    
    <!-- Left Face Inset & Divider -->
    <path d="M 129 221 L 215 270 L 215 369 L 129 320 Z" />
    <path d="M 129 320 L 215 270" />
    
    <!-- Right Face Inset & Divider -->
    <path d="M 285 270 L 371 221 L 371 320 L 285 369 Z" />
    <path d="M 285 270 L 371 320" />
    
  </g>
</svg>
